{
  "accessors": [
    {
      "bufferView": 2,
      "componentType": 5126,
      "count": 9238,
      "max": [
        0.5792030096054077,
        0.4765770137310028,
        0.10714499652385712
      ],
      "min": [
        -0.6111170053482056,
        -0.4694960117340088,
        -0.1404780000448227
      ],
      "type": "VEC3"
    },
    {
      "bufferView": 2,
      "byteOffset": 110856,
      "componentType": 5126,
      "count": 9238,
      "max": [
        0.9839454293251038,
        0.9839912056922913,
        0.9987539052963257
      ],
      "min": [
        -0.9804202318191528,
        -0.9938953518867493,
        -0.7841074466705322
      ],
      "type": "VEC3"
    },
    {
      "bufferView": 1,
      "componentType": 5126,
      "count": 9238,
      "max": [
        1.0,
        1.0
      ],
      "min": [
        0.0,
        0.0
      ],
      "type": "VEC2"
    },
    {
      "bufferView": 0,
      "componentType": 5125,
      "count": 41406,
      "type": "SCALAR"
    }
  ],
  "asset": {
    "extras": {
      "author": "gabriele.l (https://sketchfab.com/gabriele.l)",
      "license": "CC-BY-4.0 (http://creativecommons.org/licenses/by/4.0/)",
      "source": "https://sketchfab.com/3d-models/colosseo-flavian-amphitheatre-drone-73c497e1f4954da0aaa54bf2918bc3c9",
      "title": "Colosseo (Flavian Amphitheatre) - Drone"
    },
    "generator": "Sketchfab-12.66.0",
    "version": "2.0"
  },
  "bufferViews": [
    {
      "buffer": 0,
      "byteLength": 165624,
      "name": "floatBufferViews",
      "target": 34963
    },
    {
      "buffer": 0,
      "byteLength": 73904,
      "byteOffset": 165624,
      "byteStride": 8,
      "name": "floatBufferViews",
      "target": 34962
    },
    {
      "buffer": 0,
      "byteLength": 221712,
      "byteOffset": 239528,
      "byteStride": 12,
      "name": "floatBufferViews",
      "target": 34962
    }
  ],
  "buffers": [
    {
      "byteLength": 461240,
      "uri": "scene.bin"
    }
  ],
  "extensionsUsed": [
    "KHR_materials_unlit"
  ],
  "images": [
    {
      "uri": "textures/material_0_baseColor.png"
    }
  ],
  "materials": [
    {
      "doubleSided": true,
      "extensions": {
        "KHR_materials_unlit": {}
      },
      "name": "material_0",
      "pbrMetallicRoughness": {
        "baseColorTexture": {
          "index": 0
        },
        "metallicFactor": 0.0
      }
    }
  ],
  "meshes": [
    {
      "name": "Object_0",
      "primitives": [
        {
          "attributes": {
            "NORMAL": 1,
            "POSITION": 0,
            "TEXCOORD_0": 2
          },
          "indices": 3,
          "material": 0,
          "mode": 4
        }
      ]
    }
  ],
  "nodes": [
    {
      "children": [
        1
      ],
      "matrix": [
        31.899320602416992,
        0.0,
        0.0,
        0.0,
        0.0,
        7.083072040540593e-15,
        -31.899320602416992,
        0.0,
        0.0,
        31.899320602416992,
        7.083072040540593e-15,
        0.0,
        0.0,
        0.0,
        0.0,
        1.0
      ],
      "name": "Sketchfab_model"
    },
    {
      "children": [
        2
      ],
      "name": "colosseo_lp_b2.obj.cleaner.materialmerger.gles"
    },
    {
      "mesh": 0,
      "name": "Object_2"
    }
  ],
  "samplers": [
    {
      "magFilter": 9729,
      "minFilter": 9987,
      "wrapS": 10497,
      "wrapT": 10497
    }
  ],
  "scene": 0,
  "scenes": [
    {
      "name": "Sketchfab_Scene",
      "nodes": [
        0
      ]
    }
  ],
  "textures": [
    {
      "sampler": 0,
      "source": 0
    }
  ]
}
