{
  "accessors": [
    {
      "bufferView": 1,
      "componentType": 5126,
      "count": 17920,
      "max": [
        2.608920097351074,
        2.507240056991577,
        13.942770004272461
      ],
      "min": [
        -3.735650062561035,
        -2.506769895553589,
        4.394130229949951
      ],
      "type": "VEC3"
    },
    {
      "bufferView": 1,
      "byteOffset": 215040,
      "componentType": 5126,
      "count": 17920,
      "max": [
        0.9999966025352478,
        0.9999998211860657,
        0.9999859929084778
      ],
      "min": [
        -0.9999966025352478,
        -0.9999998211860657,
        -0.9999855160713196
      ],
      "type": "VEC3"
    },
    {
      "bufferView": 0,
      "componentType": 5125,
      "count": 107520,
      "type": "SCALAR"
    }
  ],
  "asset": {
    "extras": {
      "author": "Laura Salas (https://sketchfab.com/lalala.laura)",
      "license": "CC-BY-4.0 (http://creativecommons.org/licenses/by/4.0/)",
      "source": "https://sketchfab.com/3d-models/klein-bottle-2-eecfee26bbe54bfc9cb8e1904f33c0b7",
      "title": "Klein Bottle 2"
    },
    "generator": "Sketchfab-12.68.0",
    "version": "2.0"
  },
  "bufferViews": [
    {
      "buffer": 0,
      "byteLength": 430080,
      "name": "floatBufferViews",
      "target": 34963
    },
    {
      "buffer": 0,
      "byteLength": 430080,
      "byteOffset": 430080,
      "byteStride": 12,
      "name": "floatBufferViews",
      "target": 34962
    }
  ],
  "buffers": [
    {
      "byteLength": 860160,
      "uri": "scene.bin"
    }
  ],
  "materials": [
    {
      "doubleSided": true,
      "name": "Material.001",
      "pbrMetallicRoughness": {
        "baseColorFactor": [
          0.22,
          0.22,
          0.22,
          1.0
        ],
        "roughnessFactor": 0.0
      }
    }
  ],
  "meshes": [
    {
      "name": "Circle.002_0",
      "primitives": [
        {
          "attributes": {
            "NORMAL": 1,
            "POSITION": 0
          },
          "indices": 2,
          "material": 0,
          "mode": 4
        }
      ]
    }
  ],
  "nodes": [
    {
      "children": [
        1
      ],
      "matrix": [
        1.0,
        0.0,
        0.0,
        0.0,
        0.0,
        2.220446049250313e-16,
        -1.0,
        0.0,
        0.0,
        1.0,
        2.220446049250313e-16,
        0.0,
        0.0,
        0.0,
        0.0,
        1.0
      ],
      "name": "Sketchfab_model"
    },
    {
      "children": [
        2
      ],
      "name": "Root"
    },
    {
      "children": [
        3
      ],
      "matrix": [
        0.88131,
        0.0,
        0.0,
        0.0,
        0.0,
        0.88131,
        0.0,
        0.0,
        0.0,
        0.0,
        0.88131,
        0.0,
        0.0,
        0.0,
        -3.8833800000000003,
        1.0
      ],
      "name": "Circle.002"
    },
    {
      "mesh": 0,
      "name": "Circle.002_0"
    }
  ],
  "scene": 0,
  "scenes": [
    {
      "name": "Sketchfab_Scene",
      "nodes": [
        0
      ]
    }
  ]
}
