{
  "accessors": [
    {
      "bufferView": 2,
      "componentType": 5126,
      "count": 65532,
      "max": [
        13.37067985534668,
        3.3835015296936035,
        18.140316009521484
      ],
      "min": [
        -14.816511154174805,
        -33.82653045654297,
        -12.267624855041504
      ],
      "type": "VEC3"
    },
    {
      "bufferView": 2,
      "byteOffset": 786384,
      "componentType": 5126,
      "count": 65532,
      "max": [
        0.9999323487281799,
        0.9999979734420776,
        0.9999850988388062
      ],
      "min": [
        -0.9999994039535522,
        -0.999890923500061,
        -0.9999973773956299
      ],
      "type": "VEC3"
    },
    {
      "bufferView": 1,
      "componentType": 5126,
      "count": 65532,
      "max": [
        0.9986768960952759,
        0.9990208148956299
      ],
      "min": [
        0.0010131001472473145,
        0.4572885036468506
      ],
      "type": "VEC2"
    },
    {
      "bufferView": 0,
      "componentType": 5125,
      "count": 290652,
      "type": "SCALAR"
    },
    {
      "bufferView": 2,
      "byteOffset": 1572768,
      "componentType": 5126,
      "count": 65534,
      "max": [
        15.696660041809082,
        3.603083610534668,
        19.095932006835938
      ],
      "min": [
        -16.366313934326172,
        -32.267723083496094,
        -13.0969877243042
      ],
      "type": "VEC3"
    },
    {
      "bufferView": 2,
      "byteOffset": 2359176,
      "componentType": 5126,
      "count": 65534,
      "max": [
        0.9999998807907104,
        0.9999993443489075,
        0.9999784231185913
      ],
      "min": [
        -0.9999977350234985,
        -0.9999767541885376,
        -0.9999904036521912
      ],
      "type": "VEC3"
    },
    {
      "bufferView": 1,
      "byteOffset": 524256,
      "componentType": 5126,
      "count": 65534,
      "max": [
        0.998847484588623,
        0.9992015957832336
      ],
      "min": [
        0.0010919130872935057,
        0.45367616415023804
      ],
      "type": "VEC2"
    },
    {
      "bufferView": 0,
      "byteOffset": 1162608,
      "componentType": 5125,
      "count": 287367,
      "type": "SCALAR"
    },
    {
      "bufferView": 2,
      "byteOffset": 3145584,
      "componentType": 5126,
      "count": 65532,
      "max": [
        15.746452331542969,
        3.603083610534668,
        19.216285705566406
      ],
      "min": [
        -16.572053909301758,
        -33.88836669921875,
        -12.41700553894043
      ],
      "type": "VEC3"
    },
    {
      "bufferView": 2,
      "byteOffset": 3931968,
      "componentType": 5126,
      "count": 65532,
      "max": [
        0.9999873042106628,
        1.0,
        0.999996542930603
      ],
      "min": [
        -0.9999849796295166,
        -0.9999767541885376,
        -0.9999885559082031
      ],
      "type": "VEC3"
    },
    {
      "bufferView": 1,
      "byteOffset": 1048528,
      "componentType": 5126,
      "count": 65532,
      "max": [
        0.9988014101982117,
        0.9990185499191284
      ],
      "min": [
        0.00099867582321167,
        0.4556223154067993
      ],
      "type": "VEC2"
    },
    {
      "bufferView": 0,
      "byteOffset": 2312076,
      "componentType": 5125,
      "count": 274023,
      "type": "SCALAR"
    },
    {
      "bufferView": 2,
      "byteOffset": 4718352,
      "componentType": 5126,
      "count": 65532,
      "max": [
        15.746452331542969,
        3.476377248764038,
        19.188241958618164
      ],
      "min": [
        -16.56097412109375,
        -33.88836669921875,
        -12.466107368469238
      ],
      "type": "VEC3"
    },
    {
      "bufferView": 2,
      "byteOffset": 5504736,
      "componentType": 5126,
      "count": 65532,
      "max": [
        0.9999608993530273,
        0.9999966025352478,
        0.999996542930603
      ],
      "min": [
        -0.9999802112579346,
        -0.9999996423721313,
        -0.9999908208847046
      ],
      "type": "VEC3"
    },
    {
      "bufferView": 1,
      "byteOffset": 1572784,
      "componentType": 5126,
      "count": 65532,
      "max": [
        0.9988054037094116,
        0.9990205764770508
      ],
      "min": [
        0.0009862631559371948,
        0.45351922512054443
      ],
      "type": "VEC2"
    },
    {
      "bufferView": 0,
      "byteOffset": 3408168,
      "componentType": 5125,
      "count": 243081,
      "type": "SCALAR"
    },
    {
      "bufferView": 2,
      "byteOffset": 6291120,
      "componentType": 5126,
      "count": 65534,
      "max": [
        15.275744438171387,
        3.5360159873962402,
        19.197404861450195
      ],
      "min": [
        -16.403034210205078,
        -33.88836669921875,
        -12.46047592163086
      ],
      "type": "VEC3"
    },
    {
      "bufferView": 2,
      "byteOffset": 7077528,
      "componentType": 5126,
      "count": 65534,
      "max": [
        0.9999873042106628,
        1.0,
        0.9999784231185913
      ],
      "min": [
        -0.9999886155128479,
        -0.9999966621398926,
        -0.9999507069587708
      ],
      "type": "VEC3"
    },
    {
      "bufferView": 1,
      "byteOffset": 2097040,
      "componentType": 5126,
      "count": 65534,
      "max": [
        0.9989875555038452,
        0.99993896484375
      ],
      "min": [
        0.0009772107005119324,
        0.4534989595413208
      ],
      "type": "VEC2"
    },
    {
      "bufferView": 0,
      "byteOffset": 4380492,
      "componentType": 5125,
      "count": 159528,
      "type": "SCALAR"
    },
    {
      "bufferView": 2,
      "byteOffset": 7863936,
      "componentType": 5126,
      "count": 10889,
      "max": [
        15.23256778717041,
        3.017301082611084,
        19.023941040039063
      ],
      "min": [
        -16.352941513061523,
        -33.059913635253906,
        -12.421026229858398
      ],
      "type": "VEC3"
    },
    {
      "bufferView": 2,
      "byteOffset": 7994604,
      "componentType": 5126,
      "count": 10889,
      "max": [
        0.9999052286148071,
        0.9999973773956299,
        0.9998095631599426
      ],
      "min": [
        -0.9998156428337097,
        -0.9999160170555115,
        -0.9999262690544128
      ],
      "type": "VEC3"
    },
    {
      "bufferView": 1,
      "byteOffset": 2621312,
      "componentType": 5126,
      "count": 10889,
      "max": [
        0.9987078309059143,
        0.9990131855010986
      ],
      "min": [
        0.0009770151227712631,
        0.4535609483718872
      ],
      "type": "VEC2"
    },
    {
      "bufferView": 0,
      "byteOffset": 5018604,
      "componentType": 5125,
      "count": 13932,
      "type": "SCALAR"
    },
    {
      "bufferView": 2,
      "byteOffset": 8125272,
      "componentType": 5126,
      "count": 4207,
      "max": [
        15.118412017822266,
        3.2065749168395996,
        18.761625289916992
      ],
      "min": [
        -16.18430519104004,
        -33.816165924072266,
        -12.098989486694336
      ],
      "type": "VEC3"
    },
    {
      "bufferView": 2,
      "byteOffset": 8175756,
      "componentType": 5126,
      "count": 4207,
      "max": [
        0.9918549060821533,
        0.9992665648460388,
        0.9977845549583435
      ],
      "min": [
        -0.9994069337844849,
        -0.9999975562095642,
        -0.9993746280670166
      ],
      "type": "VEC3"
    },
    {
      "bufferView": 1,
      "byteOffset": 2708424,
      "componentType": 5126,
      "count": 4207,
      "max": [
        0.6185939311981201,
        0.48852282762527466
      ],
      "min": [
        0.6185939311981201,
        0.48852282762527466
      ],
      "type": "VEC2"
    },
    {
      "bufferView": 0,
      "byteOffset": 5074332,
      "componentType": 5125,
      "count": 8949,
      "type": "SCALAR"
    }
  ],
  "asset": {
    "extras": {
      "author": "HoangHiepVu (https://sketchfab.com/HoangHiepVu)",
      "license": "CC-BY-4.0 (http://creativecommons.org/licenses/by/4.0/)",
      "source": "https://sketchfab.com/3d-models/jacobins-fountain-in-lyon-france-2f5ffec814bb4fcf9c1f6a36e3cf35b5",
      "title": "Jacobins Fountain in Lyon, France"
    },
    "generator": "Sketchfab-12.67.0",
    "version": "2.0"
  },
  "bufferViews": [
    {
      "buffer": 0,
      "byteLength": 5110128,
      "name": "floatBufferViews",
      "target": 34963
    },
    {
      "buffer": 0,
      "byteLength": 2742080,
      "byteOffset": 5110128,
      "byteStride": 8,
      "name": "floatBufferViews",
      "target": 34962
    },
    {
      "buffer": 0,
      "byteLength": 8226240,
      "byteOffset": 7852208,
      "byteStride": 12,
      "name": "floatBufferViews",
      "target": 34962
    }
  ],
  "buffers": [
    {
      "byteLength": 16078448,
      "uri": "scene.bin"
    }
  ],
  "extensionsUsed": [
    "KHR_materials_unlit"
  ],
  "images": [
    {
      "uri": "textures/Model_0_baseColor.jpeg"
    }
  ],
  "materials": [
    {
      "doubleSided": true,
      "extensions": {
        "KHR_materials_unlit": {}
      },
      "name": "Model_0",
      "pbrMetallicRoughness": {
        "baseColorTexture": {
          "index": 0
        },
        "metallicFactor": 0.0
      }
    },
    {
      "doubleSided": true,
      "extensions": {
        "KHR_materials_unlit": {}
      },
      "name": "Model_untextured",
      "pbrMetallicRoughness": {
        "baseColorFactor": [
          0.501961,
          0.501961,
          0.501961,
          1.0
        ],
        "metallicFactor": 0.0
      }
    }
  ],
  "meshes": [
    {
      "name": "Object_0",
      "primitives": [
        {
          "attributes": {
            "NORMAL": 1,
            "POSITION": 0,
            "TEXCOORD_0": 2
          },
          "indices": 3,
          "material": 0,
          "mode": 4
        }
      ]
    },
    {
      "name": "Object_1",
      "primitives": [
        {
          "attributes": {
            "NORMAL": 5,
            "POSITION": 4,
            "TEXCOORD_0": 6
          },
          "indices": 7,
          "material": 0,
          "mode": 4
        }
      ]
    },
    {
      "name": "Object_2",
      "primitives": [
        {
          "attributes": {
            "NORMAL": 9,
            "POSITION": 8,
            "TEXCOORD_0": 10
          },
          "indices": 11,
          "material": 0,
          "mode": 4
        }
      ]
    },
    {
      "name": "Object_3",
      "primitives": [
        {
          "attributes": {
            "NORMAL": 13,
            "POSITION": 12,
            "TEXCOORD_0": 14
          },
          "indices": 15,
          "material": 0,
          "mode": 4
        }
      ]
    },
    {
      "name": "Object_4",
      "primitives": [
        {
          "attributes": {
            "NORMAL": 17,
            "POSITION": 16,
            "TEXCOORD_0": 18
          },
          "indices": 19,
          "material": 0,
          "mode": 4
        }
      ]
    },
    {
      "name": "Object_5",
      "primitives": [
        {
          "attributes": {
            "NORMAL": 21,
            "POSITION": 20,
            "TEXCOORD_0": 22
          },
          "indices": 23,
          "material": 0,
          "mode": 4
        }
      ]
    },
    {
      "name": "Object_6",
      "primitives": [
        {
          "attributes": {
            "NORMAL": 25,
            "POSITION": 24,
            "TEXCOORD_0": 26
          },
          "indices": 27,
          "material": 1,
          "mode": 4
        }
      ]
    }
  ],
  "nodes": [
    {
      "children": [
        1
      ],
      "matrix": [
        1.0,
        0.0,
        0.0,
        0.0,
        0.0,
        -1.0,
        -2.220446049250313e-16,
        0.0,
        0.0,
        2.220446049250313e-16,
        -1.0,
        0.0,
        0.0,
        0.0,
        0.0,
        1.0
      ],
      "name": "Sketchfab_model"
    },
    {
      "children": [
        2,
        3,
        4,
        5,
        6,
        7,
        8
      ],
      "name": "Model.obj.cleaner"
    },
    {
      "mesh": 0,
      "name": "Object_2"
    },
    {
      "mesh": 1,
      "name": "Object_3"
    },
    {
      "mesh": 2,
      "name": "Object_4"
    },
    {
      "mesh": 3,
      "name": "Object_5"
    },
    {
      "mesh": 4,
      "name": "Object_6"
    },
    {
      "mesh": 5,
      "name": "Object_7"
    },
    {
      "mesh": 6,
      "name": "Object_8"
    }
  ],
  "samplers": [
    {
      "magFilter": 9729,
      "minFilter": 9987,
      "wrapS": 10497,
      "wrapT": 10497
    }
  ],
  "scene": 0,
  "scenes": [
    {
      "name": "Sketchfab_Scene",
      "nodes": [
        0
      ]
    }
  ],
  "textures": [
    {
      "sampler": 0,
      "source": 0
    }
  ]
}
